<svg width="15" height="15" viewBox="0 0 15 15" fill="none" xmlns="http://www.w3.org/2000/svg">
<g clip-path="url(#clip0_106_212)">
<path d="M11.7188 11.25V10.0781C11.7187 9.81379 11.6271 9.55762 11.4596 9.35319C11.292 9.14877 11.0587 9.00872 10.7995 8.95687L7.03125 8.20312C6.22799 7.18082 5.20306 6.35429 4.03377 5.78589C2.86448 5.21748 1.58137 4.92205 0.28125 4.92188H0.234375V12.6562H5.85938L11.7188 11.25Z" fill="#F4B43F"/>
<path d="M11.7188 11.7187V10.0781C11.7187 9.81378 11.6271 9.55761 11.4596 9.35319C11.292 9.14876 11.0587 9.00872 10.7995 8.95687L7.03125 8.20312C6.29622 7.26842 5.37501 6.49662 4.32602 5.93666C3.27703 5.3767 2.12314 5.04079 0.9375 4.95023V6.09374C0.9375 7.58558 1.53013 9.01632 2.58502 10.0712C3.63992 11.1261 5.07066 11.7187 6.5625 11.7187H11.7188Z" fill="#F7C445"/>
<path d="M0.234375 11.7188H5.08195V12.6562H0.234375" fill="#606160"/>
<path d="M9.60938 12.6562H11.7188C11.9052 12.6562 12.0841 12.5822 12.2159 12.4503C12.3478 12.3184 12.4219 12.1396 12.4219 11.9531C12.4219 11.7666 12.3478 11.5878 12.2159 11.4559C12.0841 11.3241 11.9052 11.25 11.7188 11.25H10.1705" fill="#606160"/>
<path d="M10.5469 12.6562C10.5469 11.9103 10.2506 11.195 9.72311 10.6675C9.19567 10.1401 8.4803 9.84375 7.73438 9.84375C6.98845 9.84375 6.27308 10.1401 5.74564 10.6675C5.21819 11.195 4.92188 11.9103 4.92188 12.6562H10.5469Z" fill="#898989"/>
<path d="M7.73438 14.5312C8.76991 14.5312 9.60938 13.6918 9.60938 12.6562C9.60938 11.6207 8.76991 10.7812 7.73438 10.7812C6.69884 10.7812 5.85938 11.6207 5.85938 12.6562C5.85938 13.6918 6.69884 14.5312 7.73438 14.5312Z" fill="#606160"/>
<path d="M7.73438 10.7813C7.35168 10.781 6.97816 10.8984 6.66446 11.1176C6.41311 11.4784 6.29669 11.9162 6.33555 12.3542C6.37442 12.7922 6.5661 13.2026 6.87705 13.5136C7.188 13.8245 7.59841 14.0162 8.03644 14.0551C8.47447 14.0939 8.91221 13.9775 9.27305 13.7262C9.46883 13.4451 9.58384 13.1158 9.60558 12.774C9.62731 12.4322 9.55494 12.0909 9.39633 11.7873C9.23771 11.4838 8.99893 11.2295 8.70592 11.0521C8.41291 10.8747 8.07689 10.781 7.73438 10.7813Z" fill="#747574"/>
<path d="M0.9375 5.85938V8.20312H5.85938C5.27434 7.47178 4.5323 6.8814 3.68819 6.47569C2.84408 6.06999 1.91952 5.85935 0.982969 5.85938H0.9375Z" fill="#93D3F5"/>
<path d="M1.875 8.90625H0.9375V9.375H1.875V8.90625Z" fill="#606160"/>
<path d="M7.73438 13.3594C8.1227 13.3594 8.4375 13.0446 8.4375 12.6562C8.4375 12.2679 8.1227 11.9531 7.73438 11.9531C7.34605 11.9531 7.03125 12.2679 7.03125 12.6562C7.03125 13.0446 7.34605 13.3594 7.73438 13.3594Z" fill="#A0A0A0"/>
<path d="M9.99469 4.45312H10.3125C10.4567 4.45313 10.5986 4.41754 10.7257 4.3495C10.8529 4.28147 10.9612 4.1831 11.0412 4.06313L11.5828 3.25078C11.6246 3.18805 11.6813 3.13661 11.7478 3.10104C11.8143 3.06547 11.8885 3.04687 11.9639 3.04688C12.0854 3.04688 12.2019 3.09513 12.2877 3.18101C12.3736 3.2669 12.4219 3.38338 12.4219 3.50484C12.4219 3.66467 12.3746 3.82091 12.2859 3.95391L11.7525 4.7543C11.5799 5.01289 11.3172 5.19796 11.0156 5.27344L10.5469 5.39062L11.4844 6.32812L12.1875 5.27344C12.343 5.0403 12.5313 4.83086 12.7467 4.65164L13.6448 3.90422C13.7633 3.80553 13.9125 3.75138 14.0667 3.75117C14.1277 3.75102 14.188 3.76289 14.2444 3.78611C14.3008 3.80932 14.352 3.84343 14.3951 3.88647C14.4383 3.92951 14.4725 3.98065 14.4959 4.03694C14.5192 4.09323 14.5313 4.15358 14.5313 4.21453C14.5313 4.28833 14.5137 4.36107 14.4799 4.4267C14.4461 4.49232 14.3972 4.54895 14.3372 4.59187L13.3359 5.30719C13.0424 5.51683 12.7951 5.78456 12.6094 6.09375L12.1875 6.79688L12.6675 6.91687C12.8018 6.95044 12.9226 7.0243 13.0137 7.12854C13.1048 7.23279 13.1618 7.36241 13.177 7.5L13.3364 8.93344C13.3518 9.07142 13.3597 9.21014 13.3598 9.34898C13.3598 9.414 13.347 9.47837 13.3221 9.53843C13.2972 9.59849 13.2608 9.65305 13.2148 9.699C13.1688 9.74495 13.1142 9.78139 13.0541 9.80622C12.994 9.83106 12.9296 9.84381 12.8646 9.84375C12.7428 9.84381 12.6252 9.79894 12.5344 9.71773C12.4436 9.63652 12.3859 9.52467 12.3724 9.40359L12.1875 7.73438H11.94C11.3101 7.73437 10.6926 7.55895 10.1568 7.22778C9.62098 6.89662 9.18795 6.42278 8.90625 5.85938L7.6486 6.69773C7.55139 6.76238 7.43721 6.7968 7.32047 6.79664C7.22998 6.79689 7.14064 6.77633 7.05936 6.73655C6.97807 6.69676 6.90703 6.63881 6.85172 6.56719L6.23719 5.77031C6.14399 5.67705 6.09164 5.5506 6.09164 5.41875C6.09171 5.35332 6.10468 5.28854 6.12982 5.22814C6.15495 5.16773 6.19177 5.11287 6.23814 5.06671C6.28452 5.02056 6.33954 4.984 6.40007 4.95915C6.4606 4.93429 6.52543 4.92163 6.59086 4.92188C6.72274 4.92196 6.84919 4.97439 6.94243 5.06766L7.5 5.625L7.96875 5.33203L9.07735 4.63922" fill="#FFDAB6"/>
<path d="M4.31695 4.87827L2.67633 3.70639C2.6359 3.67754 2.60568 3.63659 2.59003 3.58946C2.57438 3.54232 2.57411 3.49143 2.58926 3.44412C2.60441 3.39682 2.6342 3.35556 2.67432 3.32628C2.71445 3.297 2.76283 3.28123 2.8125 3.28124H4.75289L5.1682 2.0353C5.18276 1.9912 5.21009 1.95241 5.24673 1.92387C5.28337 1.89533 5.32766 1.87831 5.37399 1.87499C5.4202 1.87212 5.46625 1.88281 5.50647 1.90575C5.54669 1.92869 5.57934 1.96289 5.60039 2.00413L6.30352 3.41038L5.88399 3.61991L5.43399 2.71968L5.1443 3.58921C5.12883 3.63598 5.09901 3.6767 5.05908 3.70556C5.01915 3.73442 4.97114 3.74997 4.92188 3.74999H3.54399L4.5893 4.49671L4.31695 4.87827ZM7.26563 2.34374H6.79688V0.468738C6.79685 0.420158 6.81193 0.372772 6.84001 0.333133C6.8681 0.293494 6.9078 0.263561 6.95364 0.247475C6.99948 0.231389 7.04919 0.229944 7.09588 0.243341C7.14258 0.256737 7.18396 0.284313 7.2143 0.322254L8.03461 1.34624L9.74016 0.493347C9.78166 0.472303 9.82848 0.464086 9.87466 0.469744C9.92085 0.475402 9.9643 0.494679 9.99949 0.525119C10.0347 0.555559 10.06 0.595785 10.0723 0.640673C10.0845 0.68556 10.0831 0.733079 10.0683 0.777175L9.59953 2.18343L9.15422 2.0353L9.44414 1.16577L8.07352 1.85155C8.02554 1.87552 7.9708 1.88232 7.91842 1.8708C7.86604 1.85929 7.8192 1.83015 7.7857 1.78827L7.26563 1.13694V2.34374Z" fill="#E15240"/>
<path d="M13.4801 10.5803L13.2389 10.9823L14.4108 11.6854L14.6519 11.2835L13.4801 10.5803Z" fill="#E15240"/>
<path d="M13.3503 11.4201L12.8995 11.5489L13.3683 13.1895L13.819 13.0607L13.3503 11.4201Z" fill="#E15240"/>
<path d="M10.7995 8.95688L10.3125 8.85938V9.375C10.3125 9.62364 10.4113 9.8621 10.5871 10.0379C10.7629 10.2137 11.0014 10.3125 11.25 10.3125H11.7188V10.0781C11.7187 9.81379 11.6271 9.55762 11.4596 9.35319C11.292 9.14877 11.0587 9.00872 10.7995 8.95688Z" fill="#93D3F5"/>
<path d="M1.45828 5.87976C1.57027 6.40452 1.85892 6.87497 2.27602 7.21252C2.69313 7.55007 3.21342 7.73427 3.75 7.73437H5.44172C4.38258 6.65379 2.96699 5.99472 1.45828 5.87976Z" fill="#BCE3FA"/>
<path d="M10.5469 5.39063L11.0156 5.27344C11.1419 5.24045 11.2622 5.18777 11.3721 5.11735L10.9057 4.2211C10.7441 4.37015 10.5324 4.45298 10.3125 4.45313H9.99469L9.07735 4.63922L7.96875 5.33204L7.8429 5.41079L8.1675 6.35157L8.90625 5.85938C9.27192 6.58957 9.88886 7.16324 10.6437 7.47493L11.325 6.16876L10.5469 5.39063Z" fill="#508C45"/>
<path d="M12.3729 9.40359C12.3869 9.52926 12.4485 9.64479 12.545 9.72647C12.6415 9.80814 12.7657 9.84976 12.8919 9.84277C13.0182 9.83578 13.137 9.78072 13.2239 9.68888C13.3108 9.59705 13.3593 9.47542 13.3594 9.34898C13.3592 9.21014 13.3513 9.07141 13.3359 8.93343L13.177 7.49999C13.1635 7.383 13.1196 7.27158 13.0498 7.17679L12.1887 7.74468L12.3729 9.40359Z" fill="#FFDAB6"/>
<path d="M12.1875 5.27343L11.4844 6.32812L11.325 6.16874L10.6437 7.47491C11.0545 7.64573 11.495 7.73389 11.94 7.73437H12.1875L12.1887 7.74468L13.0498 7.17679C12.9569 7.04786 12.8215 6.95581 12.6675 6.91686L12.1875 6.79687L12.6094 6.09374C12.7143 5.92046 12.839 5.75993 12.9809 5.61538L12.375 5.03296C12.3084 5.10987 12.2459 5.19013 12.1875 5.27343Z" fill="#747574"/>
<path d="M14.0667 3.75116C13.9126 3.75137 13.7633 3.80552 13.6449 3.90421L12.7467 4.65163C12.6111 4.767 12.4863 4.89465 12.3741 5.03296L12.9809 5.61538C13.0898 5.5022 13.2086 5.39905 13.336 5.30718L14.3377 4.59163C14.4177 4.53452 14.4774 4.45346 14.5083 4.36015C14.5392 4.26685 14.5396 4.16614 14.5095 4.07258C14.4794 3.97902 14.4203 3.89745 14.3408 3.83968C14.2613 3.7819 14.1655 3.7509 14.0672 3.75116H14.0667Z" fill="#FFDAB6"/>
<path d="M9.375 4.6875C9.89277 4.6875 10.3125 4.26777 10.3125 3.75C10.3125 3.23223 9.89277 2.8125 9.375 2.8125C8.85723 2.8125 8.4375 3.23223 8.4375 3.75C8.4375 4.26777 8.85723 4.6875 9.375 4.6875Z" fill="#FFDAB6"/>
<path d="M10.2256 3.36069C10.1643 3.22532 10.0717 3.10649 9.95536 3.01403C9.83904 2.92157 9.70237 2.85814 9.55667 2.829C9.41097 2.79985 9.26042 2.80583 9.11748 2.84643C8.97455 2.88704 8.84334 2.9611 8.73472 3.06249C8.6261 3.16388 8.54319 3.28968 8.49285 3.42949C8.44252 3.56929 8.4262 3.71907 8.44526 3.86643C8.46431 4.0138 8.51819 4.1545 8.60243 4.2769C8.68668 4.3993 8.79886 4.49988 8.9297 4.5703L9.14064 3.51562L10.2256 3.36069Z" fill="#606160"/>
</g>
<defs>
<clipPath id="clip0_106_212">
<rect width="15" height="15" fill="white"/>
</clipPath>
</defs>
</svg>
