<svg width="15" height="15" viewBox="0 0 15 15" fill="none" xmlns="http://www.w3.org/2000/svg">
<g clip-path="url(#clip0_106_89)">
<mask id="mask0_106_89" style="mask-type:luminance" maskUnits="userSpaceOnUse" x="0" y="0" width="15" height="15">
<path d="M0.0140686 15V0.00939941H15V15H0.0140686Z" fill="#DEDECA"/>
</mask>
<g mask="url(#mask0_106_89)">
<path fill-rule="evenodd" clip-rule="evenodd" d="M15 7.5C15 11.6421 11.6421 15 7.5 15C3.35789 15 0 11.6421 0 7.5C0 3.35789 3.35789 0 7.5 0C11.6421 0 15 3.35789 15 7.5Z" fill="#DEDECA"/>
</g>
<path fill-rule="evenodd" clip-rule="evenodd" d="M4.21875 11.7188C4.09443 11.7188 3.9752 11.6694 3.88729 11.5815C3.79939 11.4935 3.75 11.3743 3.75 11.25V9.84375V10.7812C3.75 10.9056 3.79939 11.0248 3.88729 11.1127C3.9752 11.2006 4.09443 11.25 4.21875 11.25C4.34307 11.25 4.4623 11.2006 4.55021 11.1127C4.63811 11.0248 4.6875 10.9056 4.6875 10.7812V11.25C4.6875 11.3743 4.63811 11.4935 4.55021 11.5815C4.4623 11.6694 4.34307 11.7188 4.21875 11.7188ZM10.7812 11.7188C10.6569 11.7188 10.5377 11.6694 10.4498 11.5815C10.3619 11.4935 10.3125 11.3743 10.3125 11.25V9.84375V10.7812C10.3125 10.9056 10.3619 11.0248 10.4498 11.1127C10.5377 11.2006 10.6569 11.25 10.7812 11.25C10.9056 11.25 11.0248 11.2006 11.1127 11.1127C11.2006 11.0248 11.25 10.9056 11.25 10.7812V11.25C11.25 11.3743 11.2006 11.4935 11.1127 11.5815C11.0248 11.6694 10.9056 11.7188 10.7812 11.7188Z" fill="#B3B2A4"/>
<path fill-rule="evenodd" clip-rule="evenodd" d="M4.6875 10.7812C4.6875 10.9056 4.63811 11.0248 4.55021 11.1127C4.4623 11.2006 4.34307 11.25 4.21875 11.25C4.09443 11.25 3.9752 11.2006 3.88729 11.1127C3.79939 11.0248 3.75 10.9056 3.75 10.7812V8.90625C3.75 8.78193 3.79939 8.6627 3.88729 8.57479C3.9752 8.48689 4.09443 8.4375 4.21875 8.4375C4.34307 8.4375 4.4623 8.48689 4.55021 8.57479C4.63811 8.6627 4.6875 8.78193 4.6875 8.90625V10.7812ZM11.25 10.7812C11.25 10.9056 11.2006 11.0248 11.1127 11.1127C11.0248 11.2006 10.9056 11.25 10.7812 11.25C10.6569 11.25 10.5377 11.2006 10.4498 11.1127C10.3619 11.0248 10.3125 10.9056 10.3125 10.7812V8.90625C10.3125 8.78193 10.3619 8.6627 10.4498 8.57479C10.5377 8.48689 10.6569 8.4375 10.7812 8.4375C10.9056 8.4375 11.0248 8.48689 11.1127 8.57479C11.2006 8.6627 11.25 8.78193 11.25 8.90625V10.7812Z" fill="#D5915B"/>
<path fill-rule="evenodd" clip-rule="evenodd" d="M12.1875 9.84375H11.25V8.90625C11.25 8.78193 11.2006 8.6627 11.1127 8.57479C11.0248 8.48689 10.9056 8.4375 10.7812 8.4375C10.6569 8.4375 10.5377 8.48689 10.4498 8.57479C10.3619 8.6627 10.3125 8.78193 10.3125 8.90625V9.84375H4.6875V8.90625C4.6875 8.78193 4.63811 8.6627 4.55021 8.57479C4.4623 8.48689 4.34307 8.4375 4.21875 8.4375C4.09443 8.4375 3.9752 8.48689 3.88729 8.57479C3.79939 8.6627 3.75 8.78193 3.75 8.90625V9.84375H2.8125C2.66689 9.84352 2.52335 9.80918 2.39339 9.74349C2.26344 9.6778 2.15067 9.58258 2.06414 9.46547C1.94196 9.30459 1.87556 9.10826 1.875 8.90625V6.09375C1.875 5.84511 1.97377 5.60665 2.14959 5.43084C2.3254 5.25502 2.56386 5.15625 2.8125 5.15625H12.1875C12.4948 5.15625 12.765 5.30602 12.9359 5.53453C13.053 5.69086 13.125 5.88328 13.125 6.09375V8.90625C13.125 9.15489 13.0262 9.39335 12.8504 9.56916C12.6746 9.74498 12.4361 9.84375 12.1875 9.84375Z" fill="#B3B2A4"/>
<path fill-rule="evenodd" clip-rule="evenodd" d="M4.6875 9.84375H3.75V8.90625C3.75 8.78193 3.79939 8.6627 3.88729 8.57479C3.9752 8.48689 4.09443 8.4375 4.21875 8.4375C4.34307 8.4375 4.4623 8.48689 4.55021 8.57479C4.63811 8.6627 4.6875 8.78193 4.6875 8.90625V9.84375ZM11.25 9.84375H10.3125V8.90625C10.3125 8.78193 10.3619 8.6627 10.4498 8.57479C10.5377 8.48689 10.6569 8.4375 10.7812 8.4375C10.9056 8.4375 11.0248 8.48689 11.1127 8.57479C11.2006 8.6627 11.25 8.78193 11.25 8.90625V9.84375Z" fill="#AE7A51"/>
<path fill-rule="evenodd" clip-rule="evenodd" d="M2.8125 4.6875C2.56386 4.6875 2.3254 4.78627 2.14959 4.96209C1.97377 5.1379 1.875 5.37636 1.875 5.625V8.4375C1.875 8.64797 1.94695 8.84039 2.06414 8.99672L4.21875 4.6875H2.8125ZM7.03125 4.6875L4.6875 9.375H7.96875L10.3125 4.6875H7.03125Z" fill="#4C5665"/>
<path fill-rule="evenodd" clip-rule="evenodd" d="M4.21876 4.6875L2.06415 8.99672C2.15068 9.11383 2.26344 9.20905 2.3934 9.27474C2.52336 9.34043 2.66689 9.37477 2.81251 9.375H4.68751L7.03126 4.6875H4.21876Z" fill="#F0CB83"/>
<path fill-rule="evenodd" clip-rule="evenodd" d="M10.7812 9.37501H12.1875C12.4361 9.37501 12.6746 9.27624 12.8504 9.10043C13.0262 8.92461 13.125 8.68615 13.125 8.43751V5.62501C13.125 5.41455 13.053 5.22212 12.9359 5.0658L10.7812 9.37501Z" fill="#4C5665"/>
<path fill-rule="evenodd" clip-rule="evenodd" d="M12.1875 4.6875H10.3125L7.96875 9.375H10.7812L12.9359 5.06578C12.8493 4.94867 12.7366 4.85345 12.6066 4.78776C12.4767 4.72207 12.3331 4.68773 12.1875 4.6875Z" fill="#F0CB83"/>
</g>
<defs>
<clipPath id="clip0_106_89">
<rect width="15" height="15" fill="white"/>
</clipPath>
</defs>
</svg>
