<svg width="13" height="13" viewBox="0 0 13 13" fill="none" xmlns="http://www.w3.org/2000/svg">
<path d="M11.5781 12.5938V0.40625H5.89062L1.42188 4.875V8.9375C2.28383 8.9375 3.11048 9.27991 3.71997 9.8894C4.32947 10.4989 4.67188 11.3255 4.67188 12.1875V12.5938H11.5781Z" fill="#99142B"/>
<path d="M4.719 1.57788C4.42267 2.54487 4.38935 3.57336 4.62247 4.5575C4.85558 5.54165 5.3467 6.44591 6.0453 7.17724C6.7439 7.90857 7.62475 8.44055 8.5972 8.71845C9.56965 8.99634 10.5986 9.01011 11.5781 8.75834V0.40625H5.89062L4.719 1.57788Z" fill="#A81D3B"/>
<path d="M10.7656 1.82812V4.875C10.7656 5.03662 10.7014 5.19161 10.5871 5.30589C10.4729 5.42017 10.3179 5.48438 10.1562 5.48438H3.41819C3.26584 5.48438 3.11973 5.42385 3.012 5.31613C2.90427 5.2084 2.84375 5.06229 2.84375 4.90994C2.84373 4.8345 2.85858 4.75979 2.88744 4.69008C2.91629 4.62038 2.9586 4.55704 3.01194 4.50369L6.11833 1.3973C6.17493 1.34068 6.24212 1.29578 6.31608 1.26514C6.39004 1.2345 6.46931 1.21874 6.54936 1.21875H10.1562C10.3179 1.21875 10.4729 1.28295 10.5871 1.39723C10.7014 1.51151 10.7656 1.66651 10.7656 1.82812Z" fill="#F0F5FC"/>
<path d="M4.0625 6.70312H3.25C3.02563 6.70312 2.84375 6.88501 2.84375 7.10938C2.84375 7.33374 3.02563 7.51562 3.25 7.51562H4.0625C4.28687 7.51562 4.46875 7.33374 4.46875 7.10938C4.46875 6.88501 4.28687 6.70312 4.0625 6.70312Z" fill="#D63063"/>
<path d="M6.01007 5.48438L9.39759 1.21875H7.77259L4.38507 5.48438H6.01007Z" fill="#C8D9ED"/>
<path d="M10.1562 1.21875H9.88731L6.5 5.48438H7.17519L10.4849 1.31625C10.3871 1.25273 10.2729 1.21887 10.1562 1.21875Z" fill="#C8D9ED"/>
<path d="M6.29688 10.0649C5.99735 9.74748 5.79732 9.34932 5.72149 8.91955C5.64566 8.48978 5.69735 8.0472 5.87017 7.64647C6.043 7.24574 6.32939 6.90439 6.694 6.66456C7.05861 6.42474 7.48546 6.29694 7.92188 6.29694C8.35829 6.29694 8.78515 6.42474 9.14975 6.66456C9.51436 6.90439 9.80076 7.24574 9.97358 7.64647C10.1464 8.0472 10.1981 8.48978 10.1223 8.91955C10.0464 9.34932 9.84641 9.74748 9.54688 10.0649H6.29688Z" fill="#BCBCBC"/>
<path d="M6.65966 9.1863C6.54725 8.96957 6.49255 8.72754 6.50082 8.48353C6.50908 8.23952 6.58004 8.00175 6.70686 7.79312C6.83368 7.58449 7.01208 7.41203 7.22488 7.29235C7.43769 7.17267 7.67773 7.1098 7.92188 7.1098C8.16603 7.1098 8.40606 7.17267 8.61887 7.29235C8.83167 7.41203 9.01007 7.58449 9.13689 7.79312C9.26371 8.00175 9.33467 8.23952 9.34294 8.48353C9.3512 8.72754 9.2965 8.96957 9.18409 9.1863H6.65966Z" fill="#878787"/>
<path d="M8.9375 12.5938V12.009C8.93753 11.7331 9.04713 11.4685 9.24219 11.2734C9.43725 11.0784 9.54684 10.8138 9.54688 10.5379V10.0025C9.54689 9.85804 9.51844 9.71501 9.46317 9.58155C9.40789 9.4481 9.32686 9.32685 9.22472 9.22472C9.13365 9.13365 9.02554 9.06142 8.90655 9.01214C8.78756 8.96286 8.66004 8.9375 8.53125 8.9375H7.3125C7.18371 8.9375 7.05619 8.96286 6.9372 9.01214C6.81821 9.06142 6.7101 9.13365 6.61903 9.22472C6.51688 9.32685 6.43586 9.4481 6.38058 9.58155C6.32531 9.71501 6.29686 9.85804 6.29688 10.0025V10.5379C6.29691 10.8138 6.4065 11.0784 6.60156 11.2734C6.79662 11.4685 6.90622 11.7331 6.90625 12.009V12.5938H8.9375Z" fill="#F2B303"/>
<path d="M9.22472 9.22472C9.13365 9.13365 9.02554 9.06142 8.90655 9.01214C8.78756 8.96286 8.66004 8.9375 8.53125 8.9375H7.3125C7.18371 8.9375 7.05619 8.96286 6.9372 9.01214C6.81821 9.06142 6.7101 9.13365 6.61903 9.22472C6.51688 9.32685 6.43586 9.4481 6.38058 9.58155C6.32531 9.71501 6.29686 9.85804 6.29688 10.0025V10.5379C6.2976 10.6146 6.30679 10.691 6.3243 10.7656H9.51945C9.53696 10.691 9.54615 10.6146 9.54688 10.5379V10.0025C9.54689 9.85804 9.51844 9.71501 9.46317 9.58155C9.40789 9.4481 9.32686 9.32685 9.22472 9.22472Z" fill="#757575"/>
<path d="M7.92188 8.125C8.08349 8.125 8.23849 8.1892 8.35277 8.30348C8.46705 8.41776 8.53125 8.57276 8.53125 8.73438V9.75H7.3125V8.73438C7.3125 8.57276 7.3767 8.41776 7.49098 8.30348C7.60526 8.1892 7.76026 8.125 7.92188 8.125Z" fill="#F2B303"/>
<path d="M11.7812 0.40625C11.7812 0.352378 11.7598 0.300712 11.7218 0.262619C11.6837 0.224526 11.632 0.203125 11.5781 0.203125H5.89062C5.83676 0.203137 5.7851 0.224545 5.74702 0.262641L1.27827 4.73139C1.24017 4.76947 1.21876 4.82113 1.21875 4.875V8.9375C1.21875 8.99137 1.24015 9.04304 1.27824 9.08113C1.31634 9.11922 1.368 9.14062 1.42188 9.14062C2.22968 9.14154 3.00413 9.46284 3.57533 10.034C4.14653 10.6052 4.46784 11.3797 4.46875 12.1875V12.5938C4.46875 12.6476 4.49015 12.6993 4.52824 12.7374C4.56634 12.7755 4.618 12.7969 4.67188 12.7969H11.5781C11.632 12.7969 11.6837 12.7755 11.7218 12.7374C11.7598 12.6993 11.7812 12.6476 11.7812 12.5938V0.40625ZM6.74517 11.1298C6.69768 11.0813 6.65628 11.0273 6.62187 10.9688H9.22188C9.1876 11.0272 9.14633 11.0813 9.09898 11.1298C8.98306 11.2449 8.89113 11.3819 8.82855 11.5328C8.76596 11.6837 8.73395 11.8456 8.73438 12.009V12.3906H7.10938V12.009C7.10985 11.8456 7.07791 11.6838 7.01539 11.5329C6.95287 11.382 6.86103 11.245 6.74517 11.1298ZM6.70312 8.53125C6.70235 8.35611 6.73932 8.18286 6.81154 8.0233C6.88376 7.86374 6.98951 7.72161 7.12161 7.60661C7.25371 7.49161 7.40904 7.40643 7.57702 7.35688C7.74501 7.30732 7.9217 7.29455 8.09507 7.31944C8.26843 7.34434 8.4344 7.4063 8.58165 7.50111C8.72891 7.59593 8.854 7.72137 8.94841 7.86889C9.04281 8.01642 9.10431 8.18255 9.12872 8.35598C9.15313 8.52942 9.13987 8.70608 9.08984 8.87392C8.97871 8.81437 8.85867 8.77321 8.73438 8.75205V8.73438C8.73438 8.51889 8.64877 8.31222 8.4964 8.15985C8.34403 8.00748 8.13736 7.92188 7.92188 7.92188C7.70639 7.92188 7.49972 8.00748 7.34735 8.15985C7.19498 8.31222 7.10938 8.51889 7.10938 8.73438V8.75266C6.98508 8.77382 6.86504 8.81498 6.75391 8.87453C6.72055 8.76314 6.70345 8.64752 6.70312 8.53125ZM8.32812 8.73438V9.54688H7.51562V8.73438C7.51562 8.62663 7.55843 8.5233 7.63461 8.44711C7.7108 8.37093 7.81413 8.32812 7.92188 8.32812C8.02962 8.32812 8.13295 8.37093 8.20914 8.44711C8.28532 8.5233 8.32812 8.62663 8.32812 8.73438ZM6.5 10.5379V10.0023C6.49967 9.88449 6.52272 9.76781 6.5678 9.65899C6.61289 9.55017 6.67911 9.45138 6.76264 9.36833C6.85889 9.27319 6.97847 9.20503 7.10938 9.17069V9.75C7.10938 9.80387 7.13078 9.85554 7.16887 9.89363C7.20696 9.93172 7.25863 9.95312 7.3125 9.95312H8.53125C8.58512 9.95312 8.63679 9.93172 8.67488 9.89363C8.71297 9.85554 8.73438 9.80387 8.73438 9.75V9.17069C8.86528 9.20503 8.98486 9.27319 9.08111 9.36833C9.16464 9.45138 9.23086 9.55017 9.27595 9.65899C9.32103 9.76781 9.34408 9.88449 9.34375 10.0023V10.5379C9.34375 10.5463 9.34152 10.5542 9.34131 10.5625H6.50244C6.50223 10.5542 6.5 10.5463 6.5 10.5379ZM9.67159 9.55987C9.61627 9.40688 9.53261 9.26568 9.425 9.14367C9.52639 8.89686 9.56543 8.62887 9.5387 8.36338C9.51196 8.0979 9.42025 7.84308 9.27169 7.62144C9.12312 7.3998 8.92226 7.21815 8.68684 7.09254C8.45143 6.96693 8.1887 6.90123 7.92188 6.90123C7.65505 6.90123 7.39232 6.96693 7.15691 7.09254C6.92149 7.21815 6.72063 7.3998 6.57206 7.62144C6.4235 7.84308 6.33179 8.0979 6.30505 8.36338C6.27832 8.62887 6.31736 8.89686 6.41875 9.14367C6.31114 9.26568 6.22748 9.40688 6.17216 9.55987C5.99025 9.25137 5.89314 8.90026 5.89067 8.54213C5.88821 8.184 5.98047 7.83158 6.15812 7.52061C6.33576 7.20963 6.59247 6.95115 6.90222 6.77137C7.21196 6.59159 7.56374 6.4969 7.92188 6.4969C8.28001 6.4969 8.63179 6.59159 8.94153 6.77137C9.25128 6.95115 9.50799 7.20963 9.68563 7.52061C9.86328 7.83158 9.95554 8.184 9.95308 8.54213C9.95061 8.90026 9.8535 9.25137 9.67159 9.55987ZM11.375 12.3906H9.14062V12.009C9.14032 11.899 9.16184 11.79 9.20392 11.6884C9.24601 11.5868 9.30782 11.4946 9.3858 11.417C9.50165 11.3019 9.5935 11.1649 9.65602 11.014C9.71853 10.8631 9.75048 10.7013 9.75 10.5379V10.1398C10.0603 9.78798 10.2624 9.3541 10.3322 8.89023C10.402 8.42637 10.3365 7.95221 10.1435 7.52466C9.9505 7.09712 9.63823 6.73434 9.24416 6.47987C8.85009 6.2254 8.39097 6.09004 7.92188 6.09004C7.45278 6.09004 6.99366 6.2254 6.59959 6.47987C6.20552 6.73434 5.89325 7.09712 5.70025 7.52466C5.50724 7.95221 5.44171 8.42637 5.51151 8.89023C5.58131 9.3541 5.78348 9.78798 6.09375 10.1398V10.5379C6.09327 10.7013 6.12522 10.8631 6.18773 11.014C6.25025 11.1649 6.3421 11.3019 6.45795 11.417C6.53593 11.4946 6.59774 11.5868 6.63983 11.6884C6.68191 11.79 6.70343 11.899 6.70312 12.009V12.3906H4.875V12.1875C4.8739 11.3072 4.53706 10.4604 3.93315 9.81982C3.32925 9.17926 2.50376 8.79317 1.625 8.74027V4.95909L5.97472 0.609375H11.375V12.3906Z" fill="black"/>
<path d="M2.86852 4.35988C2.75969 4.46861 2.68556 4.60719 2.65551 4.75806C2.62546 4.90894 2.64084 5.06534 2.69971 5.20747C2.75858 5.34961 2.85828 5.47108 2.98621 5.55653C3.11414 5.64198 3.26454 5.68756 3.41838 5.6875H10.1562C10.3717 5.6875 10.5784 5.6019 10.7308 5.44953C10.8831 5.29715 10.9687 5.09049 10.9687 4.875V1.82813C10.9687 1.61264 10.8831 1.40598 10.7308 1.2536C10.5784 1.10123 10.3717 1.01563 10.1562 1.01563H6.54935C6.44258 1.01531 6.33681 1.03619 6.23816 1.07706C6.13952 1.11792 6.04997 1.17796 5.97471 1.25369L2.86852 4.35988ZM6.54935 1.42188H10.1562C10.264 1.42188 10.3673 1.46468 10.4435 1.54087C10.5197 1.61705 10.5625 1.72038 10.5625 1.82813V4.875C10.5625 4.98275 10.5197 5.08608 10.4435 5.16227C10.3673 5.23845 10.264 5.28125 10.1562 5.28125H3.41838C3.34492 5.28123 3.27311 5.25943 3.21204 5.2186C3.15097 5.17778 3.10337 5.11977 3.07526 5.05189C3.04715 4.98402 3.03979 4.90934 3.05412 4.83729C3.06844 4.76524 3.10381 4.69905 3.15574 4.6471L6.26193 1.54091C6.29958 1.50304 6.34437 1.47302 6.39371 1.45259C6.44305 1.43216 6.49595 1.42172 6.54935 1.42188ZM4.06249 6.5H3.24999C3.08837 6.5 2.93338 6.56421 2.8191 6.67849C2.70482 6.79277 2.64061 6.94776 2.64061 7.10938C2.64061 7.27099 2.70482 7.42599 2.8191 7.54027C2.93338 7.65455 3.08837 7.71875 3.24999 7.71875H4.06249C4.2241 7.71875 4.3791 7.65455 4.49338 7.54027C4.60766 7.42599 4.67186 7.27099 4.67186 7.10938C4.67186 6.94776 4.60766 6.79277 4.49338 6.67849C4.3791 6.56421 4.2241 6.5 4.06249 6.5ZM4.06249 7.3125H3.24999C3.19612 7.3125 3.14445 7.2911 3.10636 7.25301C3.06826 7.21492 3.04686 7.16325 3.04686 7.10938C3.04686 7.05551 3.06826 7.00384 3.10636 6.96575C3.14445 6.92765 3.19612 6.90625 3.24999 6.90625H4.06249C4.11636 6.90625 4.16803 6.92765 4.20612 6.96575C4.24421 7.00384 4.26561 7.05551 4.26561 7.10938C4.26561 7.16325 4.24421 7.21492 4.20612 7.25301C4.16803 7.2911 4.11636 7.3125 4.06249 7.3125Z" fill="black"/>
</svg>
