<svg width="18" height="18" viewBox="0 0 18 18" fill="none" xmlns="http://www.w3.org/2000/svg">
<path d="M0.318822 7.88786C0.328146 7.96425 0.36753 8.02962 0.423798 8.07365C0.480102 8.11768 0.552966 8.14014 0.629394 8.13082L1.55009 8.01836L1.52083 7.77892L1.07756 7.83306L1.03922 7.51925L0.561822 7.57757C0.409002 7.59626 0.300174 7.73504 0.318822 7.88786ZM7.52797 7.04506L7.55723 7.2845L8.47793 7.17203C8.55433 7.16271 8.61967 7.12332 8.66373 7.06706C8.70776 7.01075 8.73022 6.93789 8.7209 6.86146C8.70221 6.70864 8.56318 6.60014 8.41036 6.61878L7.93296 6.6771L7.9713 6.99092L7.52797 7.04506ZM2.13967 12.4967L1.32887 12.5958C1.25547 12.6047 1.18869 12.5525 1.17973 12.4791L0.962034 10.6972L2.03861 10.5657L2.25631 12.3476C2.26531 12.421 2.21307 12.4878 2.13967 12.4967ZM8.06303 11.7731L8.87383 11.674C8.94723 11.6651 8.99946 11.5983 8.9905 11.5249L8.77281 9.74304L7.69623 9.87455L7.91392 11.6564C7.92285 11.7298 7.98963 11.7821 8.06303 11.7731Z" fill="#1F3241"/>
<path d="M0.865951 10.2511L1.2027 11.7429L8.79074 10.8159L8.75874 9.28691C8.77098 8.78874 8.6777 8.34728 8.38574 8.01208C8.2687 7.8778 8.15649 7.73934 8.05645 7.59174L6.75094 5.66391C6.63038 5.48625 6.42356 5.3875 6.20965 5.40532L2.40528 5.87008C2.19338 5.90424 2.0164 6.0499 1.94246 6.25132L1.13944 8.43674C1.07788 8.6041 1.00203 8.76549 0.920743 8.924C0.718423 9.31956 0.734119 9.77054 0.865951 10.2511Z" fill="#F6CA1A"/>
<path d="M0.784149 9.82562C0.801249 9.96562 0.825153 10.1048 0.867417 10.2521L1.20204 11.743L8.78925 10.8162L8.75854 9.28814C8.76067 9.13539 8.75379 8.99416 8.73327 8.85455L0.784149 9.82562Z" fill="#EBAE20"/>
<path d="M1.64249 8.34149L7.54289 7.6207L6.38455 5.9116C6.35481 5.86671 6.30665 5.8414 6.2516 5.84464L2.46822 6.30681C2.41742 6.31649 2.37336 6.35307 2.35532 6.40379L1.64249 8.34149Z" fill="#5D7286"/>
<path d="M1.95334 11.6512L8.04043 10.9076L7.03204 10.234C6.87886 10.1316 6.69414 10.0879 6.51144 10.1102L3.24541 10.5092C3.06271 10.5315 2.89395 10.6185 2.76993 10.7547L1.95334 11.6512Z" fill="#545554"/>
<path d="M2.70251 8.95033L3.51755 9.49105L6.00047 9.18757L6.66287 8.46649L2.70251 8.95033Z" fill="#1F3241"/>
<path d="M8.28613 9.82367L8.38225 10.611L7.49881 9.91979L8.28613 9.82367Z" fill="white"/>
<path d="M2.42709 8.958C2.30009 8.92913 2.12631 8.88244 2.00031 8.82037C1.93443 8.78794 1.86571 8.76162 1.79382 8.74661C1.61709 8.70971 1.31761 8.66881 1.22743 8.78999C1.22743 8.78999 0.928738 9.44008 1.45257 9.59171C1.45257 9.59171 2.83127 9.83878 2.78198 9.54171C2.78198 9.54171 2.76873 9.36955 2.703 9.19481C2.65767 9.07428 2.55263 8.98652 2.42709 8.958ZM6.93224 8.40767C7.04856 8.3491 7.20599 8.26191 7.31334 8.17133C7.36946 8.12399 7.42983 8.08191 7.496 8.05001C7.65865 7.97164 7.93949 7.8599 8.05616 7.95576C8.05616 7.95576 8.5026 8.51484 8.03064 8.78808C8.03064 8.78808 6.75195 9.35976 6.7283 9.0596C6.7283 9.0596 6.69972 8.88932 6.72143 8.70388C6.7364 8.57601 6.81726 8.46556 6.93224 8.40767Z" fill="#F2F2F2"/>
<path d="M1.45404 10.6582L1.55016 11.4455L2.241 10.562L1.45404 10.6582Z" fill="white"/>
<path d="M5.50043 5.93639L6.16355 7.78931L6.39899 7.76051L5.73587 5.90759L5.50043 5.93639Z" fill="#77889C"/>
<path d="M4.02515 6.11675L4.69187 7.96895L4.92731 7.94015L4.26095 6.08795L4.02515 6.11675Z" fill="#77889C"/>
<path d="M2.55347 6.29641L3.21659 8.14933L3.45203 8.12053L2.78927 6.26761L2.55347 6.29641Z" fill="#77889C"/>
<path d="M17.6813 7.83346C17.6649 7.96561 17.5482 8.06325 17.4149 8.05561L17.1832 8.04463L16.9427 8.30833L16.7784 8.13463L16.9327 8.03131L17.0037 7.45758L17.4772 7.55154C17.6084 7.57671 17.6978 7.69986 17.6813 7.83346ZM9.97797 7.29335L9.77626 7.42176L9.60868 7.10755L9.3799 7.06155C9.24883 7.03649 9.16081 6.91351 9.17715 6.78136C9.19368 6.64773 9.30902 6.54991 9.44226 6.55755L9.92444 6.58181L9.85345 7.15554L9.97797 7.29335Z" fill="#868F96"/>
<path d="M8.97616 11.6425L9.60893 11.7208C9.66484 11.7277 9.71581 11.688 9.72272 11.6321L9.8776 10.3801L9.04229 10.2768L8.88742 11.5287C8.88047 11.5846 8.92021 11.6356 8.97616 11.6425ZM16.0503 12.5177L16.683 12.596C16.7389 12.6029 16.7899 12.5632 16.7968 12.5072L16.9517 11.2553L16.1164 11.1519L15.9615 12.4039C15.9546 12.4598 15.9943 12.5107 16.0503 12.5177Z" fill="#1F3241"/>
<path d="M17.4319 9.59878C17.4319 9.59878 17.247 11.117 16.9185 11.5792C16.9185 11.5792 15.6929 11.6605 15.1033 11.4923C14.9287 11.4426 14.7488 11.414 14.5687 11.3917L11.3269 10.9906C11.147 10.9684 10.9658 10.9523 10.7846 10.958C10.1728 10.9775 9.00261 10.5998 9.00261 10.5998C8.7981 10.0717 8.98879 8.5542 8.98879 8.5542C9.05042 8.056 9.54506 7.46686 9.54506 7.46686C9.62567 7.33967 10.0023 7.16802 10.0023 7.16802L10.8156 5.94586C10.884 5.8555 10.9561 5.77825 11.0252 5.71334C11.2345 5.51699 11.5151 5.41468 11.802 5.41951C12.4816 5.43099 13.6425 5.5774 13.6425 5.5774C13.6425 5.5774 14.7807 5.7155 15.4458 5.86814C15.7506 5.93808 16.0148 6.12525 16.1763 6.39305C16.2177 6.46181 16.2582 6.53882 16.2943 6.62367L16.7852 8.00722C16.7852 8.00722 17.1101 8.26567 17.1573 8.40866C17.1573 8.40866 17.4935 9.10058 17.4319 9.59878Z" fill="#49AFE3"/>
<path d="M16.4835 8.03203L16.0216 6.73027C15.9944 6.6672 15.9621 6.60466 15.9256 6.54422C15.8059 6.3455 15.6122 6.20668 15.3804 6.15351C14.7731 6.01416 13.7397 5.88441 13.6238 5.87008L13.5892 5.8658C13.4711 5.85118 12.4171 5.72266 11.7971 5.71222C11.58 5.70855 11.377 5.7848 11.2256 5.92682C11.1627 5.98572 11.1051 6.04929 11.0541 6.11578L10.2889 7.26566L16.4835 8.03203Z" fill="#5D7286"/>
<path d="M16.0383 8.75245L15.953 8.8584L15.1736 8.94779C15.0643 8.96082 14.9604 9.00251 14.8709 9.06961L14.2065 9.56548C14.0764 9.66293 13.9147 9.70635 13.7535 9.6864L12.5334 9.53545C12.3737 9.51569 12.226 9.43401 12.125 9.30797L11.6 8.66494C11.5311 8.57825 11.439 8.5123 11.3362 8.47302L10.6035 8.19658L10.5451 8.07285C10.5451 8.07285 12.2535 8.53195 13.27 8.5884C14.2696 8.78136 16.0383 8.75245 16.0383 8.75245ZM16.4447 10.9867C16.3104 11.035 15.9872 11.1086 15.3719 11.028C15.2617 11.0129 15.1508 11.0154 15.0434 11.0375L15.0388 11.0384C14.9299 11.0603 14.8203 11.0645 14.7114 11.051L11.2734 10.6256C11.1645 10.6122 11.0577 10.5813 10.9574 10.5334L10.9547 10.5316C10.8544 10.4838 10.7475 10.4544 10.6369 10.4422C10.0205 10.3704 9.72496 10.2202 9.60649 10.1407C9.56451 10.1104 9.54774 10.0553 9.56674 10.009C9.69886 9.69202 9.93405 9.62675 10.0981 9.62344C10.1809 9.62189 10.2642 9.63957 10.3416 9.66977L11.1242 9.97156C11.5225 10.1255 11.9373 10.2299 12.3599 10.2822L13.7398 10.4529C14.1639 10.5054 14.5916 10.5053 15.0154 10.453L15.8465 10.3508C15.9304 10.3406 16.0141 10.3435 16.0954 10.3654C16.2537 10.4086 16.466 10.5292 16.5154 10.8686C16.5225 10.9182 16.4942 10.9678 16.4447 10.9867Z" fill="#1F3241"/>
<path d="M15.5743 9.42664C15.6932 9.21629 16.1003 8.54032 16.5203 8.34822C16.5842 8.31896 16.6546 8.30862 16.7245 8.31683C16.8329 8.32958 16.9704 8.36626 17.0078 8.5099C17.0078 8.5099 17.0074 8.89899 16.9619 9.15506C16.9389 9.28469 16.8405 9.38873 16.7123 9.41854C16.5753 9.45036 16.3415 9.48816 15.9596 9.50872C15.8734 9.51336 15.7866 9.51153 15.7006 9.5039L15.6108 9.49594C15.5771 9.49292 15.5576 9.45609 15.5743 9.42664ZM10.8314 8.83988C10.7673 8.60688 10.5373 7.85207 10.1767 7.56342C10.1218 7.51947 10.0561 7.49229 9.98634 7.48322C9.87802 7.46914 9.73578 7.47119 9.6645 7.60144C9.6645 7.60144 9.57004 7.9789 9.55175 8.23832C9.5425 8.36964 9.61255 8.49453 9.72966 8.55468C9.85473 8.61891 10.0723 8.71258 10.4377 8.82558C10.5202 8.85107 10.6048 8.87048 10.69 8.88401L10.779 8.89816C10.8125 8.90345 10.8404 8.87253 10.8314 8.83988Z" fill="white"/>
<path d="M13.9359 9.89923L12.3042 9.69733L12.2482 10.1504L13.8798 10.3523L13.9359 9.89923Z" fill="#1F3241"/>
<path d="M15.8943 10.9508C16.0228 10.9508 16.1269 10.8467 16.1269 10.7183C16.1269 10.5898 16.0228 10.4857 15.8943 10.4857C15.7659 10.4857 15.6618 10.5898 15.6618 10.7183C15.6618 10.8467 15.7659 10.9508 15.8943 10.9508Z" fill="#F6CA1A"/>
<path d="M10.206 10.247C10.3344 10.247 10.4385 10.1429 10.4385 10.0145C10.4385 9.88604 10.3344 9.78192 10.206 9.78192C10.0775 9.78192 9.97342 9.88604 9.97342 10.0145C9.97342 10.1429 10.0775 10.247 10.206 10.247Z" fill="#F6CA1A"/>
<path d="M9.60623 9.43561L9.81863 10.7208L8.89703 9.81722L8.09783 10.9044L8.29583 9.67681L7.12223 9.32762L8.11583 9.13322L7.02863 8.11801L8.29223 8.53921L8.10863 7.50602L8.66303 8.37722L9.45143 7.21082L9.27503 8.37362L10.643 7.99921L9.90503 8.88482L10.9526 9.44281L9.60623 9.43561Z" fill="#EF4C4A"/>
<path d="M9.24263 9.24119L9.33983 9.82439L8.92583 9.41399L8.56223 9.90719L8.65223 9.35279L8.12303 9.19439L8.56943 9.10799L8.07983 8.64719L8.64863 8.83799L8.56583 8.36999L8.81783 8.76599L9.17423 8.23679L9.09503 8.76239L9.71423 8.59319L9.37943 8.99639L9.85463 9.24479L9.24263 9.24119Z" fill="#F6CA1A"/>
</svg>
