<svg width="15" height="15" viewBox="0 0 15 15" fill="none" xmlns="http://www.w3.org/2000/svg">
<g clip-path="url(#clip0_106_235)">
<path d="M12.3263 13.8893H2.67376C2.34918 13.8893 2.03016 13.805 1.7479 13.6448C1.46565 13.4845 1.22984 13.2537 1.06353 12.9749C0.897233 12.6962 0.806141 12.3791 0.799169 12.0546C0.792198 11.73 0.869586 11.4093 1.02376 11.1237L5.85001 2.18108C6.01067 1.88342 6.24886 1.63477 6.53934 1.46146C6.82982 1.28816 7.16176 1.19666 7.50001 1.19666C7.83826 1.19666 8.17021 1.28816 8.46069 1.46146C8.75117 1.63477 8.98935 1.88342 9.15001 2.18108L13.9763 11.1239C14.1304 11.4095 14.2077 11.7302 14.2007 12.0547C14.1937 12.3792 14.1026 12.6963 13.9363 12.975C13.77 13.2537 13.5342 13.4845 13.252 13.6447C12.9698 13.805 12.6508 13.8893 12.3263 13.8893Z" fill="#FBEDBF"/>
<path d="M12.3263 14.1237H2.67376C2.30864 14.1236 1.94977 14.0289 1.63227 13.8486C1.31477 13.6683 1.0495 13.4086 0.862417 13.0951C0.675335 12.7815 0.572845 12.4248 0.564974 12.0598C0.557103 11.6947 0.64412 11.3339 0.817512 11.0126L5.64376 2.06976C5.8245 1.73489 6.09246 1.45515 6.41925 1.26019C6.74604 1.06522 7.11948 0.96228 7.50001 0.96228C7.88054 0.96228 8.25398 1.06522 8.58077 1.26019C8.90756 1.45515 9.17552 1.73489 9.35626 2.06976L14.1825 11.0126C14.3559 11.3339 14.4429 11.6947 14.4351 12.0598C14.4272 12.4248 14.3247 12.7815 14.1376 13.0951C13.9505 13.4086 13.6853 13.6683 13.3678 13.8486C13.0503 14.0289 12.6914 14.1236 12.3263 14.1237ZM7.50001 1.43085C7.20353 1.42828 6.91204 1.50726 6.65742 1.65917C6.40279 1.81107 6.19483 2.03006 6.05626 2.29218L1.23001 11.2352C1.09516 11.4851 1.02749 11.7658 1.03362 12.0497C1.03975 12.3336 1.11947 12.6111 1.26497 12.8549C1.41048 13.0988 1.6168 13.3007 1.86374 13.4409C2.11068 13.5812 2.38979 13.6549 2.67376 13.6549H12.3263C12.6102 13.6549 12.8893 13.5812 13.1363 13.4409C13.3832 13.3007 13.5895 13.0988 13.7351 12.8549C13.8806 12.6111 13.9603 12.3336 13.9664 12.0497C13.9725 11.7658 13.9049 11.4851 13.77 11.2352L8.94376 2.29218C8.80519 2.03006 8.59723 1.81107 8.34261 1.65917C8.08798 1.50726 7.7965 1.42828 7.50001 1.43085Z" fill="#E06661"/>
<path d="M5.39063 12.4219L4.49813 11.1469C4.2671 10.8168 4.11901 10.4359 4.06638 10.0365C4.01375 9.63701 4.05814 9.23077 4.19578 8.85211L4.6875 7.5L5.35992 7.90359C5.49766 7.98617 5.66085 8.01548 5.81871 7.98599C5.97657 7.9565 6.11817 7.87025 6.2168 7.74352L6.31336 7.6193C6.68308 7.14404 6.93984 6.5909 7.06422 6.00176C7.18859 5.41261 7.17732 4.8029 7.03125 4.21875L9.00821 5.77219C9.42011 6.09579 9.76159 6.50011 10.0117 6.96036C10.2618 7.4206 10.4153 7.92708 10.4627 8.44875L10.5469 9.375L11.4844 8.90625L11.37 10.1639C11.2925 11.0171 10.9183 11.8161 10.3125 12.4219H5.39063Z" fill="#B6534F"/>
<path d="M6.79689 12.4219L6.15165 11.2603C5.99301 10.9748 5.91606 10.6512 5.92925 10.3249C5.94243 9.99852 6.04525 9.68213 6.22642 9.41039L6.56251 8.90625L7.26564 10.0781C7.87948 9.31091 8.27652 8.39323 8.41548 7.42055L8.43751 7.26562L9.33306 9.05672C9.66111 9.7128 9.72642 10.4694 9.51564 11.172L9.14064 12.4219H6.79689Z" fill="#E06661"/>
<path d="M12.8906 12.6562H2.34375C2.28159 12.6562 2.22198 12.6316 2.17802 12.5876C2.13407 12.5436 2.10938 12.484 2.10938 12.4219C2.10938 12.3597 2.13407 12.3001 2.17802 12.2561C2.22198 12.2122 2.28159 12.1875 2.34375 12.1875H12.8906C12.9528 12.1875 13.0124 12.2122 13.0564 12.2561C13.1003 12.3001 13.125 12.3597 13.125 12.4219C13.125 12.484 13.1003 12.5436 13.0564 12.5876C13.0124 12.6316 12.9528 12.6562 12.8906 12.6562Z" fill="#B6534F"/>
<path d="M14.1377 13.095C14.3264 12.782 14.4298 12.4251 14.4377 12.0597C14.4455 11.6944 14.3576 11.3334 14.1825 11.0126L9.35626 2.06976C9.17552 1.73489 8.90756 1.45515 8.58077 1.26019C8.25398 1.06522 7.88054 0.96228 7.50001 0.96228C7.11948 0.96228 6.74604 1.06522 6.41925 1.26019C6.09246 1.45515 5.8245 1.73489 5.64376 2.06976L0.817512 11.0126C0.64412 11.3339 0.557103 11.6947 0.564974 12.0598C0.572845 12.4248 0.675335 12.7815 0.862417 13.0951C1.0495 13.4086 1.31477 13.6683 1.63227 13.8486C1.94977 14.0289 2.30864 14.1236 2.67376 14.1237H12.3263C12.6918 14.1254 13.0513 14.0314 13.3692 13.8509C13.687 13.6704 13.952 13.4098 14.1377 13.095ZM12.3263 13.6549H2.67376C2.38979 13.6549 2.11068 13.5812 1.86374 13.4409C1.6168 13.3007 1.41048 13.0988 1.26497 12.8549C1.11947 12.6111 1.03975 12.3336 1.03362 12.0497C1.02749 11.7658 1.09516 11.4851 1.23001 11.2352L6.05626 2.29218C6.19684 2.03173 6.40525 1.81415 6.65942 1.66251C6.91359 1.51087 7.20404 1.43081 7.50001 1.43081C7.79598 1.43081 8.08643 1.51087 8.3406 1.66251C8.59477 1.81415 8.80319 2.03173 8.94376 2.29218L13.77 11.2352C13.9049 11.4851 13.9725 11.7658 13.9664 12.0497C13.9603 12.3336 13.8806 12.6111 13.7351 12.8549C13.5895 13.0988 13.3832 13.3007 13.1363 13.4409C12.8893 13.5812 12.6102 13.6549 12.3263 13.6549Z" fill="black"/>
<path d="M12.8906 12.1875H10.8223C11.265 11.6064 11.5357 10.9126 11.6034 10.1852L11.7188 8.92759C11.7226 8.88599 11.7152 8.84413 11.6974 8.80633C11.6796 8.76853 11.6521 8.73618 11.6176 8.71261C11.5831 8.68904 11.5429 8.67512 11.5013 8.67229C11.4596 8.66946 11.4179 8.67781 11.3805 8.69649L10.7501 9.01173L10.6971 8.42743C10.6459 7.87424 10.4826 7.33724 10.2174 6.84911C9.95209 6.36098 9.59029 5.9319 9.15398 5.58798L7.17703 4.03454C7.13862 4.00438 7.09175 3.98697 7.04296 3.98474C6.99418 3.98252 6.94591 3.99559 6.90492 4.02212C6.86392 4.04866 6.83224 4.08735 6.81429 4.13277C6.79635 4.17819 6.79305 4.22808 6.80484 4.27548C6.944 4.82529 6.95536 5.39967 6.83807 5.95456C6.72078 6.50945 6.47795 7.0301 6.1282 7.47657L6.03188 7.60055C5.96855 7.68226 5.87744 7.73788 5.77582 7.75684C5.6742 7.77581 5.56916 7.75681 5.48063 7.70344L4.8082 7.30009C4.77858 7.28231 4.74539 7.27131 4.71102 7.26786C4.67665 7.26441 4.64193 7.2686 4.60937 7.28014C4.57681 7.29167 4.54719 7.31026 4.52265 7.33458C4.49811 7.35889 4.47925 7.38833 4.46742 7.42079L3.97523 8.77313C3.82483 9.18713 3.77632 9.63126 3.8338 10.068C3.89128 10.5047 4.05306 10.9211 4.30547 11.2821L4.94039 12.1875H2.34375C2.28159 12.1875 2.22198 12.2122 2.17802 12.2562C2.13407 12.3001 2.10938 12.3597 2.10938 12.4219C2.10938 12.484 2.13407 12.5437 2.17802 12.5876C2.22198 12.6316 2.28159 12.6563 2.34375 12.6563H12.8906C12.9528 12.6563 13.0124 12.6316 13.0564 12.5876C13.1003 12.5437 13.125 12.484 13.125 12.4219C13.125 12.3597 13.1003 12.3001 13.0564 12.2562C13.0124 12.2122 12.9528 12.1875 12.8906 12.1875ZM4.69008 11.0124C4.48082 10.7131 4.34669 10.3678 4.299 10.0058C4.25131 9.64373 4.29147 9.27553 4.41609 8.93227L4.81055 7.84712L5.23922 8.10493C5.42613 8.21694 5.64757 8.25668 5.86176 8.21665C6.07596 8.17663 6.2681 8.05961 6.40195 7.88766L6.49852 7.76368C7.16042 6.91772 7.47098 5.84928 7.3657 4.78032L8.86313 5.95688C9.24935 6.26135 9.56962 6.64121 9.80444 7.07333C10.0393 7.50546 10.1837 7.98084 10.2291 8.47055L10.3125 9.39634C10.3161 9.43425 10.3289 9.47072 10.3497 9.50258C10.3706 9.53445 10.3989 9.56075 10.4322 9.57921C10.4655 9.59768 10.5028 9.60775 10.5409 9.60856C10.5789 9.60936 10.6166 9.60088 10.6507 9.58384L11.212 9.30259L11.1356 10.1414C11.0653 10.908 10.7391 11.6287 10.2096 12.1875H9.45563L9.74016 11.2392C9.96918 10.4795 9.89857 9.66097 9.54281 8.95173L8.64844 7.16087C8.62622 7.11615 8.5903 7.0797 8.54592 7.05682C8.50154 7.03394 8.45101 7.02584 8.4017 7.03369C8.35239 7.04154 8.30688 7.06493 8.27179 7.10045C8.2367 7.13597 8.21388 7.18178 8.20664 7.23118L8.18437 7.38634C8.06765 8.20301 7.76073 8.98085 7.28836 9.65719L6.76453 8.78438C6.74418 8.75052 6.7156 8.72234 6.68145 8.70248C6.6473 8.68262 6.60868 8.67172 6.56918 8.67078C6.52968 8.66985 6.49059 8.67891 6.45554 8.69713C6.42048 8.71536 6.3906 8.74214 6.36867 8.77501L6.03141 9.28126C5.82556 9.58848 5.7087 9.94665 5.69377 10.3162C5.67884 10.6857 5.76641 11.0521 5.9468 11.3749L6.39844 12.1875H5.5125L4.69008 11.0124ZM6.93469 12.1875L6.35648 11.1466C6.21814 10.8989 6.15099 10.6178 6.16245 10.3343C6.17391 10.0508 6.26353 9.77599 6.42141 9.54024L6.55195 9.3443L7.06477 10.1988C7.08422 10.2312 7.11121 10.2584 7.14345 10.2782C7.17569 10.2979 7.21222 10.3095 7.24992 10.312C7.28759 10.3142 7.32523 10.3073 7.35977 10.2921C7.39431 10.2769 7.42477 10.2538 7.44867 10.2246C7.97117 9.57103 8.34442 8.81109 8.54227 7.99805L9.12352 9.16055C9.42565 9.76307 9.48561 10.4584 9.29109 11.1038L8.96625 12.1875H6.93469Z" fill="black"/>
</g>
<defs>
<clipPath id="clip0_106_235">
<rect width="15" height="15" fill="white"/>
</clipPath>
</defs>
</svg>
