<svg width="15" height="15" viewBox="0 0 15 15" fill="none" xmlns="http://www.w3.org/2000/svg">
<g clip-path="url(#clip0_106_116)">
<path d="M7.5 14.5312C11.3833 14.5312 14.5312 11.3833 14.5312 7.5C14.5312 3.61675 11.3833 0.46875 7.5 0.46875C3.61675 0.46875 0.46875 3.61675 0.46875 7.5C0.46875 11.3833 3.61675 14.5312 7.5 14.5312Z" fill="#C64635"/>
<path d="M12.1462 3.55687L3.55687 12.1462C4.72341 13.1369 6.22003 13.6524 7.74923 13.5902C9.27842 13.528 10.7282 12.8926 11.8104 11.8104C12.8926 10.7282 13.528 9.27842 13.5902 7.74923C13.6524 6.22003 13.1369 4.72341 12.1462 3.55687ZM11.4431 2.85374L2.85374 11.4431C1.86305 10.2766 1.34757 8.77996 1.4098 7.25076C1.47202 5.72157 2.10738 4.27178 3.18958 3.18958C4.27178 2.10738 5.72157 1.47202 7.25076 1.4098C8.77996 1.34757 10.2766 1.86305 11.4431 2.85374Z" fill="#DEEAF0"/>
<path d="M4.6875 9.60938H3.75C3.62568 9.60938 3.50645 9.55999 3.41854 9.47208C3.33064 9.38417 3.28125 9.26495 3.28125 9.14062C3.28125 9.0163 3.33064 8.89708 3.41854 8.80917C3.50645 8.72126 3.62568 8.67188 3.75 8.67188H5.625L4.6875 9.60938ZM7.03125 8.67188H11.25C11.3743 8.67188 11.4935 8.72126 11.5815 8.80917C11.6694 8.89708 11.7188 9.0163 11.7188 9.14062C11.7188 9.26495 11.6694 9.38417 11.5815 9.47208C11.4935 9.55999 11.3743 9.60938 11.25 9.60938H6.09375L7.03125 8.67188Z" fill="#C2D3DC"/>
<path d="M8.90625 9.60938V10.5469C8.90625 10.6712 8.95564 10.7904 9.04354 10.8783C9.13145 10.9662 9.25068 11.0156 9.375 11.0156H10.0781C10.2024 11.0156 10.3217 10.9662 10.4096 10.8783C10.4975 10.7904 10.5469 10.6712 10.5469 10.5469V9.60938H8.90625Z" fill="#393A3A"/>
<path d="M3.95672 7.2347C3.8288 7.27399 3.69233 7.27596 3.56334 7.24038C3.43434 7.20481 3.31818 7.13316 3.22848 7.03386C3.13879 6.93455 3.0793 6.81172 3.05699 6.67978C3.03468 6.54784 3.05049 6.41227 3.10255 6.289C3.15461 6.16574 3.24076 6.05988 3.35089 5.98387C3.46102 5.90787 3.59056 5.86486 3.72428 5.85992C3.858 5.85497 3.99035 5.88828 4.1058 5.95594C4.22125 6.0236 4.31499 6.1228 4.37602 6.24188V7.26563L3.95672 7.2347ZM11.0433 7.2347C11.1712 7.27399 11.3077 7.27596 11.4367 7.24038C11.5657 7.20481 11.6818 7.13316 11.7715 7.03386C11.8612 6.93455 11.9207 6.81172 11.943 6.67978C11.9653 6.54784 11.9495 6.41227 11.8975 6.289C11.8454 6.16574 11.7592 6.05988 11.6491 5.98387C11.539 5.90787 11.4094 5.86486 11.2757 5.85992C11.142 5.85497 11.0096 5.88828 10.8942 5.95594C10.7788 6.0236 10.685 6.1228 10.624 6.24188V7.26563L11.0433 7.2347Z" fill="#C2D3DC"/>
<path d="M4.3125 6.84375L4.55508 4.54031C4.59144 4.19483 4.75439 3.87503 5.01253 3.64255C5.27067 3.41007 5.60573 3.28137 5.95313 3.28125H9.04688C9.29975 3.28119 9.54796 3.34932 9.76537 3.47846C9.98278 3.60761 10.1613 3.79299 10.2823 4.01508L7.41469 6.84375H4.3125Z" fill="#C2D3DC"/>
<path d="M10.6875 6.84374L10.5134 5.18976L9.14062 6.56249L10.6875 6.84374Z" fill="#C2D3DC"/>
<path d="M11.25 8.67188V7.96875C11.25 7.59579 11.1018 7.2381 10.8381 6.97438C10.5744 6.71066 10.2167 6.5625 9.84375 6.5625H9.14062L7.03125 8.67188H11.25ZM3.75 8.67188V7.96875C3.75 7.59579 3.89816 7.2381 4.16188 6.97438C4.4256 6.71066 4.78329 6.5625 5.15625 6.5625H7.73438L5.625 8.67188H3.75Z" fill="#98ABBB"/>
<path d="M9.43898 4.85789L9.41719 4.64062C9.40557 4.525 9.35141 4.41782 9.26523 4.33986C9.17905 4.26191 9.06699 4.21875 8.95078 4.21875H6.04922C5.93301 4.21875 5.82095 4.26191 5.73477 4.33986C5.64859 4.41782 5.59443 4.525 5.58281 4.64062L5.39062 6.5625H7.73438L9.43898 4.85789Z" fill="#76D8FF"/>
<path d="M5.85938 8.4375V8.32031C5.85938 8.16491 5.79764 8.01588 5.68776 7.90599C5.57787 7.79611 5.42884 7.73438 5.27344 7.73438C5.11804 7.73438 4.969 7.79611 4.85912 7.90599C4.74923 8.01588 4.6875 8.16491 4.6875 8.32031V8.67188H5.625L5.85938 8.4375ZM10.5469 8.67188V8.32031C10.5469 8.16491 10.4851 8.01588 10.3753 7.90599C10.2654 7.79611 10.1163 7.73438 9.96094 7.73438C9.80554 7.73438 9.6565 7.79611 9.54662 7.90599C9.43673 8.01588 9.375 8.16491 9.375 8.32031V8.67188H10.5469Z" fill="#FFD55D"/>
<path d="M4.82483 10.8783C4.8683 10.9219 4.91996 10.9564 4.97683 10.98C5.0337 11.0036 5.09467 11.0157 5.15624 11.0156H5.85936C5.98368 11.0156 6.10291 10.9662 6.19082 10.8783C6.27872 10.7904 6.32811 10.6712 6.32811 10.5469V9.60938H6.09374L4.82483 10.8783Z" fill="#393A3A"/>
<path opacity="0.2" d="M7.50001 0.468754C5.79707 0.466832 4.15179 1.0855 2.87204 2.20899C2.08093 3.70386 1.87399 5.43951 2.29146 7.07848C2.70892 8.71745 3.72096 10.1426 5.1308 11.0769C6.54065 12.0111 8.24754 12.3877 9.91962 12.1335C11.5917 11.8792 13.1095 11.0122 14.1778 9.70102C14.5259 8.6448 14.6186 7.52107 14.4481 6.42211C14.2776 5.32314 13.8489 4.28029 13.1971 3.37919C12.5453 2.4781 11.6891 1.74445 10.6987 1.23851C9.70837 0.732571 8.61212 0.468764 7.50001 0.468754Z" fill="white"/>
</g>
<defs>
<clipPath id="clip0_106_116">
<rect width="15" height="15" fill="white"/>
</clipPath>
</defs>
</svg>
