<svg width="17" height="17" viewBox="0 0 17 17" fill="none" xmlns="http://www.w3.org/2000/svg">
<path d="M9.60259 14.0298V16.0358C9.60259 16.1646 9.49816 16.2714 9.36701 16.2714H7.63787C7.50673 16.2714 7.39987 16.1646 7.39987 16.0358V14.0298C7.75687 14.0906 8.12601 14.1221 8.50244 14.1221C8.87644 14.1221 9.24559 14.0906 9.60259 14.0298Z" fill="white"/>
<path opacity="0.1" d="M9.60258 14.0298V16.0358C9.60258 16.1646 9.49816 16.2714 9.36701 16.2714H8.50244C8.63358 16.2714 8.73801 16.1646 8.73801 16.0358V14.1173C9.03187 14.1076 9.32087 14.0784 9.60258 14.0298Z" fill="black"/>
<path d="M8.50001 14.1217C12.1984 14.1217 15.1966 11.1235 15.1966 7.42512C15.1966 3.72672 12.1984 0.728577 8.50001 0.728577C4.80161 0.728577 1.80347 3.72672 1.80347 7.42512C1.80347 11.1235 4.80161 14.1217 8.50001 14.1217Z" fill="#A3CBE4"/>
<path opacity="0.1" d="M15.1956 7.42412C15.1956 11.1228 12.1987 14.1221 8.5 14.1221C6.426 14.1221 4.57058 13.1774 3.34415 11.696C4.50258 12.6601 5.99129 13.2381 7.616 13.2381C11.3147 13.2381 14.3116 10.2388 14.3116 6.54012C14.3116 4.91783 13.7336 3.42912 12.7719 2.27069C14.2533 3.49712 15.1956 5.35012 15.1956 7.42412Z" fill="black"/>
<path d="M13.6865 7.4256C13.6865 8.52817 13.3416 9.54817 12.7515 10.3909L5.53374 3.17317C6.37645 2.58546 7.39645 2.2406 8.49903 2.2406C11.3647 2.2406 13.6865 4.56231 13.6865 7.4256ZM11.4643 11.678C10.624 12.2657 9.6016 12.6106 8.49903 12.6106C5.63574 12.6106 3.31403 10.2889 3.31403 7.4256C3.31403 6.32303 3.65888 5.3006 4.2466 4.46031L11.4643 11.678Z" fill="white"/>
<path d="M9.21303 3.70502H6.0656L7.7656 5.40502H9.21303C9.76189 5.40502 10.2087 5.85187 10.2087 6.40073C10.2087 6.79173 9.98046 7.13173 9.6526 7.29202L10.879 8.51845C11.5056 8.02302 11.9087 7.25802 11.9087 6.40073C11.9087 4.91445 10.6993 3.70502 9.21303 3.70502ZM6.33201 11.236H7.46009C7.61794 11.236 7.74593 11.108 7.74593 10.9502V9.09645H8.8825L6.04593 6.25987V10.9502C6.04617 11.108 6.17416 11.236 6.33201 11.236Z" fill="#A3CBE4"/>
<path d="M12.7515 10.6034C12.6954 10.6034 12.6412 10.5813 12.6011 10.5412L5.38342 3.32348C5.33897 3.27903 5.31639 3.2171 5.32197 3.15445C5.32756 3.09179 5.36059 3.03472 5.41207 2.99878C6.32279 2.3637 7.39015 2.02808 8.49879 2.02808C11.4765 2.02808 13.8987 4.44936 13.8987 7.42558C13.8987 8.53568 13.5621 9.60303 12.9253 10.5128C12.8894 10.5643 12.8323 10.597 12.7697 10.6026C12.7638 10.6031 12.7578 10.6034 12.7515 10.6034ZM5.86792 3.2069L12.7179 10.0569C13.2134 9.2674 13.474 8.363 13.474 7.42558C13.474 4.68372 11.2423 2.45308 8.49903 2.45308C7.56282 2.45308 6.65842 2.71318 5.86792 3.2069ZM8.49903 12.8231C5.52282 12.8231 3.10153 10.4018 3.10153 7.42558C3.10153 6.31402 3.43716 5.24666 4.07247 4.33862C4.10842 4.28713 4.16525 4.25411 4.2279 4.24876C4.2908 4.2422 4.35225 4.26552 4.39669 4.3102L11.6144 11.5279C11.6588 11.5724 11.6812 11.6343 11.6758 11.6967C11.6705 11.7591 11.6375 11.8162 11.586 11.8521C10.6779 12.4874 9.61059 12.8231 8.49903 12.8231ZM4.28012 4.79446C3.78615 5.58302 3.52653 6.48718 3.52653 7.42558C3.52653 10.1674 5.75717 12.3981 8.49903 12.3981C9.43743 12.3981 10.3418 12.1385 11.1301 11.6445L4.28012 4.79446Z" fill="#2F434C"/>
<path d="M9.36456 16.4839H7.63542C7.38843 16.4839 7.18735 16.2828 7.18735 16.0359V14.0299C7.18735 13.9672 7.21503 13.908 7.26288 13.8676C7.31072 13.8273 7.37386 13.8106 7.43555 13.8205C8.13352 13.9393 8.87253 13.9388 9.56711 13.8205C9.62879 13.8103 9.69193 13.8273 9.73978 13.8676C9.78762 13.908 9.8153 13.9675 9.8153 14.0299V16.0359C9.81506 16.2831 9.61301 16.4839 9.36456 16.4839ZM7.61235 14.2768V16.0359C7.61235 16.047 7.62158 16.0589 7.63542 16.0589H9.36456C9.37889 16.0589 9.39006 16.0465 9.39006 16.0359V14.2768C8.8055 14.3533 8.19885 14.3538 7.61235 14.2768Z" fill="#2F434C"/>
<path d="M7.46034 11.4486H6.33227C6.05735 11.4486 5.83392 11.2251 5.83392 10.9502V6.25991C5.83392 6.17394 5.88565 6.09647 5.96507 6.06344C6.04448 6.03114 6.1358 6.04863 6.19675 6.10958L9.03332 8.94615C9.09404 9.00687 9.11225 9.09818 9.07947 9.17784C9.04644 9.25725 8.96897 9.30898 8.88299 9.30898H7.95892V10.9502C7.95868 11.2251 7.73501 11.4486 7.46034 11.4486ZM6.25868 6.77283V10.9502C6.25868 10.9908 6.29171 11.0236 6.33202 11.0236H7.4601C7.50065 11.0236 7.53368 10.9905 7.53368 10.9502V9.09648C7.53368 8.97918 7.62888 8.88398 7.74618 8.88398H8.3696L6.25868 6.77283ZM10.879 8.73098C10.8244 8.73098 10.77 8.7101 10.7287 8.66881L9.50228 7.44238C9.45371 7.39381 9.43161 7.32484 9.44278 7.25708C9.4542 7.18933 9.49742 7.13128 9.55911 7.10117C9.82455 6.97148 9.99601 6.69657 9.99601 6.40077C9.99601 5.96897 9.6446 5.61755 9.2128 5.61755H7.76537C7.70902 5.61755 7.65487 5.59521 7.61504 5.55538L5.91504 3.85538C5.85432 3.79467 5.83611 3.70335 5.8689 3.6237C5.90192 3.54428 5.9794 3.49255 6.06537 3.49255H9.2128C10.8164 3.49255 12.121 4.79718 12.121 6.40077C12.121 7.29473 11.7162 8.12724 11.0107 8.68533C10.9721 8.71593 10.9257 8.73098 10.879 8.73098ZM9.98727 7.32605L10.8907 8.22973C11.4048 7.75785 11.6963 7.10117 11.6963 6.40077C11.6963 5.03154 10.5823 3.91755 9.21304 3.91755H6.57852L7.85352 5.19255H9.21304C9.8792 5.19255 10.4213 5.73461 10.4213 6.40077C10.4213 6.76044 10.2571 7.1002 9.98727 7.32605Z" fill="#2F434C"/>
</svg>
