<svg width="15" height="15" viewBox="0 0 15 15" fill="none" xmlns="http://www.w3.org/2000/svg">
<path d="M1.668 3.93602L8.01 6.26402H8.328V5.24402L1.668 3.68402V3.93602Z" fill="#FD9D4C"/>
<path d="M10.401 9.99902C10.311 9.99902 10.236 10.071 10.236 10.164C10.236 10.254 10.308 10.329 10.401 10.329C10.491 10.329 10.566 10.257 10.566 10.164C10.566 10.071 10.491 9.99902 10.401 9.99902Z" fill="#222F3D"/>
<path d="M11.394 5.21999L10.449 5.21399L10.425 6.91499H12.201L12.198 6.71699L11.394 5.21999Z" fill="#22BEE1"/>
<path d="M10.401 8.98199C9.74999 8.98199 9.21899 9.51299 9.21899 10.164C9.21899 10.815 9.74999 11.346 10.401 11.346C11.052 11.346 11.583 10.815 11.583 10.164C11.583 9.50999 11.052 8.98199 10.401 8.98199ZM10.401 10.827C10.035 10.827 9.73499 10.527 9.73499 10.161C9.73499 9.795 10.035 9.49499 10.401 9.49499C10.77 9.49499 11.067 9.795 11.067 10.161C11.067 10.53 10.77 10.827 10.401 10.827Z" fill="#8495A6"/>
<path d="M4.15201 10.023C4.07401 10.023 4.01401 10.086 4.01401 10.161C4.01401 10.239 4.07701 10.299 4.15201 10.299C4.23001 10.299 4.29001 10.236 4.29001 10.161C4.29001 10.086 4.23001 10.023 4.15201 10.023Z" fill="#222F3D"/>
<path d="M4.152 8.98199C3.501 8.98199 2.97 9.51299 2.97 10.164C2.97 10.815 3.501 11.346 4.152 11.346C4.803 11.346 5.334 10.815 5.334 10.164C5.334 9.50999 4.803 8.98199 4.152 8.98199ZM4.152 10.803C3.798 10.803 3.51 10.515 3.51 10.161C3.51 9.807 3.798 9.51899 4.152 9.51899C4.506 9.51899 4.794 9.807 4.794 10.161C4.794 10.515 4.506 10.803 4.152 10.803Z" fill="#8495A6"/>
<path d="M12.054 4.59902C12.003 4.51202 11.907 4.45502 11.805 4.45502H9.78899C9.62999 4.45502 9.50099 4.58402 9.50099 4.74302V6.65702C9.50099 7.13102 9.11699 7.51502 8.64299 7.51502H4.53299C4.41599 7.51502 4.30499 7.54802 4.20599 7.61102L4.19099 7.62002L1.66799 8.97602C1.64999 8.99102 1.64099 9.01202 1.64099 9.03302L1.64999 9.78902C1.64999 9.82802 1.68299 9.86102 1.72199 9.86102H2.49899C2.63999 9.07502 3.32999 8.47802 4.15499 8.47802C4.99799 8.47802 5.69699 9.10202 5.81999 9.90902H8.73899C8.86199 9.09902 9.56099 8.47802 10.404 8.47802C11.196 8.47802 11.865 9.03002 12.042 9.76802H13.26C13.452 9.76802 13.605 9.61202 13.605 9.42302V7.35902C13.605 7.29902 13.59 7.23902 13.557 7.18502L12.054 4.59902ZM12.705 6.94802C12.705 7.20902 12.504 7.41902 12.258 7.41902H10.374C10.128 7.41902 9.92399 7.20902 9.92399 6.94802L9.94799 5.18102C9.94799 4.92302 10.149 4.71302 10.395 4.71302L11.406 4.71902H11.409C11.571 4.71902 11.727 4.80302 11.82 4.94702L11.832 4.96502L12.636 6.46202C12.684 6.53702 12.708 6.62702 12.708 6.72002V6.94802H12.705Z" fill="#2ED1A2"/>
<path d="M4.15201 9.51899C3.79801 9.51899 3.51001 9.807 3.51001 10.161C3.51001 10.515 3.79801 10.803 4.15201 10.803C4.50601 10.803 4.79401 10.515 4.79401 10.161C4.79401 9.807 4.50601 9.51899 4.15201 9.51899ZM4.15201 10.302C4.07401 10.302 4.01401 10.239 4.01401 10.164C4.01401 10.086 4.07701 10.026 4.15201 10.026C4.23001 10.026 4.29001 10.089 4.29001 10.164C4.29001 10.239 4.23001 10.302 4.15201 10.302ZM10.401 9.495C10.035 9.495 9.73501 9.795 9.73501 10.161C9.73501 10.53 10.035 10.827 10.401 10.827C10.77 10.827 11.067 10.527 11.067 10.161C11.067 9.795 10.77 9.495 10.401 9.495ZM10.401 10.326C10.311 10.326 10.236 10.254 10.236 10.161C10.236 10.071 10.308 9.996 10.401 9.996C10.491 9.996 10.566 10.068 10.566 10.161C10.566 10.251 10.491 10.326 10.401 10.326Z" fill="#332195"/>
<path d="M12.489 4.34698C12.348 4.10398 12.087 3.95398 11.805 3.95398H9.789C9.354 3.95398 9 4.30798 9 4.74298V6.65698C9 6.85198 8.841 7.01398 8.643 7.01398H4.533C4.323 7.01398 4.122 7.07398 3.945 7.18198L1.419 8.54098L1.401 8.54998C1.233 8.65798 1.134 8.84098 1.137 9.04198L1.146 9.79798C1.149 10.11 1.407 10.365 1.719 10.365H2.481C2.58 11.199 3.291 11.847 4.152 11.847C4.995 11.847 5.694 11.223 5.817 10.416H8.736C8.859 11.226 9.558 11.847 10.401 11.847C11.292 11.847 12.024 11.151 12.081 10.275H13.254C13.722 10.275 14.103 9.89398 14.103 9.42598V7.36198C14.103 7.21198 14.064 7.06498 13.989 6.93598L12.489 4.34698ZM4.152 11.343C3.501 11.343 2.97 10.812 2.97 10.161C2.97 9.50998 3.501 8.97898 4.152 8.97898C4.803 8.97898 5.334 9.50998 5.334 10.161C5.334 10.812 4.803 11.343 4.152 11.343ZM10.401 11.343C9.75 11.343 9.219 10.812 9.219 10.161C9.219 9.50998 9.75 8.97898 10.401 8.97898C11.052 8.97898 11.583 9.50998 11.583 10.161C11.583 10.812 11.052 11.343 10.401 11.343ZM13.602 9.42298C13.602 9.61498 13.446 9.76798 13.257 9.76798H12.039C11.862 9.02698 11.196 8.47798 10.401 8.47798C9.558 8.47798 8.859 9.10198 8.736 9.90898H5.817C5.694 9.09898 4.995 8.47798 4.152 8.47798C3.327 8.47798 2.637 9.07498 2.496 9.86098H1.719C1.68 9.86098 1.647 9.82798 1.647 9.78898L1.638 9.03298C1.638 9.00898 1.647 8.98798 1.665 8.97598L4.188 7.61998L4.203 7.61098C4.302 7.54798 4.413 7.51498 4.53 7.51498H8.64C9.114 7.51498 9.498 7.13098 9.498 6.65698V4.74298C9.498 4.58398 9.627 4.45498 9.786 4.45498H11.802C11.904 4.45498 12 4.50898 12.051 4.59898L13.551 7.18498C13.581 7.23898 13.599 7.29898 13.599 7.35898V9.42298H13.602Z" fill="#332195"/>
<path d="M11.826 4.96499L11.814 4.94699C11.721 4.80299 11.565 4.71899 11.403 4.71899H11.4L10.389 4.71299C10.143 4.71599 9.94499 4.92599 9.94199 5.18099L9.91799 6.94799C9.91799 7.20899 10.119 7.41899 10.368 7.41899H12.252C12.498 7.41899 12.699 7.20899 12.699 6.94799V6.71999C12.699 6.62699 12.675 6.53999 12.627 6.46199L11.826 4.96499ZM10.425 6.91499L10.446 5.21099L11.391 5.21699L12.195 6.71399L12.198 6.91199H10.425V6.91499ZM1.67399 3.16799C1.55399 3.13499 1.42799 3.16199 1.32599 3.23699C1.22399 3.31499 1.16699 3.43199 1.16699 3.55799V4.00499C1.16699 4.16699 1.26299 4.31399 1.41299 4.37699L7.84199 6.73799C7.88999 6.75899 7.94099 6.76799 7.99499 6.76799H8.42699C8.64899 6.76799 8.83199 6.58499 8.83199 6.36299V5.16899C8.83199 4.98599 8.70899 4.82699 8.53499 4.77899L1.67399 3.16799ZM8.32799 6.26399H8.00999L1.66799 3.93599V3.68099L8.32799 5.24399V6.26399ZM1.96199 7.65899C2.08499 7.63499 2.15699 7.56299 2.13599 7.37399C2.11499 7.18799 1.92599 7.20299 1.92599 7.20299C1.83899 7.20899 1.56899 7.24799 1.43399 7.12199C1.39799 7.08599 1.34699 7.02299 1.34999 6.88499C1.35899 6.48899 1.65599 6.45599 1.74899 6.45599C1.74899 6.45599 1.74899 6.45599 1.75199 6.45599L1.85999 6.45899C1.92899 6.46199 1.98599 6.40499 1.98599 6.33899V4.94999C1.98599 4.88399 1.93199 4.82999 1.86599 4.82999H1.65299C1.58699 4.82999 1.53299 4.88399 1.53299 4.94999V5.93699C1.53299 5.98799 1.50299 6.03599 1.45199 6.05399C1.35599 6.08699 1.24799 6.14399 1.15499 6.23399C0.989989 6.38999 0.902989 6.60599 0.896989 6.87299C0.890989 7.10699 0.968989 7.30799 1.12199 7.45199C1.36499 7.67999 1.71599 7.65899 1.88099 7.65899C1.92299 7.66199 1.94999 7.65899 1.96199 7.65899Z" fill="#332195"/>
</svg>
